# xmcd
#
# Track frame offsets:
#	182
#	9365
#	19667
#	30785
#	42612
#	52387
#	64685
#	72767
#	84475
#	96905
#	107780
#	118970
#	130172
#	142720
#	152620
#	166865
#	177467
#	186695
#
# Disc length: 2674 seconds
#
# Revision: 3
# Processed by: cddbd v1.5.2PL0 Copyright (c) Steve Scherf et al.
# Submitted via: EZCDAudioConverter 5.5.0.1
#
DISCID=f40a7012
DTITLE=Various Artist - Country Gold
DYEAR=1988
DGENRE=Country
TTITLE0=Jerry Lee Lewis - Jambalaya
TTITLE1=Carl Perkins - Everybody's Trying To Be My Baby
TTITLE2=Johnny Cash - I Love You Because
TTITLE3=Barbara Pittman - Cold Cold Heart
TTITLE4=Leroy Van Dyke - Honeycomb
TTITLE5=Dave Dudley - The Wayward Wind
TTITLE6=Ray Pillow - I Hope I Don't Talk In My Sleep
TTITLE7=Jeannie C. Riley - Before The Next TearDrop Falls
TTITLE8=Jerry Lee Lewis - Crazy Arms
TTITLE9=Charlie Rich - Unchained Melody
TTITLE10=Charlie Walker - Blue Eyes Crying In The Rain
TTITLE11=Johnny Cash - Oh Lonesome Me
TTITLE12=Roy Drusky - If The Whole World Stopped Lovin'
TTITLE13=Carl Perkins - Matchbox
TTITLE14=David Allan Coe - Ride Me Down Easy
TTITLE15=Jeannie C. Riley - Help Me Make It Through The Night
TTITLE16=Charlie Rich - Jeannie With The Light Brown Hair
TTITLE17=Willie Nelson - Rainy Day Blues
EXTD=
EXTT0=
EXTT1=
EXTT2=
EXTT3=
EXTT4=
EXTT5=
EXTT6=
EXTT7=
EXTT8=
EXTT9=
EXTT10=
EXTT11=
EXTT12=
EXTT13=
EXTT14=
EXTT15=
EXTT16=
EXTT17=
PLAYORDER=
